<svg id="Layer_1" data-name="Layer 1" xmlns="http://www.w3.org/2000/svg" viewBox="0 0 130 55"><defs><style>.cls-1{fill:#042138;}.cls-2{fill:#fff;}</style></defs><rect class="cls-1" x="9.75" y="9.16" width="36.68" height="36.68" rx="6" transform="translate(-11.22 27.92) rotate(-45)"/><path class="cls-2" d="M27,38.68h0a2.56,2.56,0,0,1,0-3.62l5.76-5.75a2.56,2.56,0,0,0,0-3.62L27,19.94a2.56,2.56,0,0,1,0-3.62h0a2.56,2.56,0,0,1,3.62,0L40,25.69a2.56,2.56,0,0,1,0,3.62l-9.37,9.37A2.56,2.56,0,0,1,27,38.68Z"/><path class="cls-2" d="M20.37,34.89h0a1.67,1.67,0,0,1,0-2.39l3.8-3.8a1.7,1.7,0,0,0,0-2.4l-3.81-3.79a1.7,1.7,0,0,1,0-2.4h0a1.69,1.69,0,0,1,2.39,0L29,26.3a1.69,1.69,0,0,1,0,2.39l-6.19,6.2A1.69,1.69,0,0,1,20.37,34.89Z"/><path class="cls-2" d="M15.77,31.89h0a1,1,0,0,1,0-1.42L18,28.21a1,1,0,0,0,0-1.42l-2.26-2.26a1,1,0,0,1,0-1.42h0a1,1,0,0,1,1.42,0l3.68,3.68a1,1,0,0,1,0,1.42l-3.68,3.68A1,1,0,0,1,15.77,31.89Z"/><path class="cls-1" d="M56.54,32.35V22.63h4.2v1.46H58.69v2.44h1.79V28H58.69v4.32Z"/><path class="cls-1" d="M61.83,32.35l1.84-9.72h2.45l1.81,9.72H66l-.33-2.05H64.2l-.34,2.05ZM64.39,29h1l-.52-3.79Z"/><path class="cls-1" d="M72.44,32.5a3.36,3.36,0,0,1-1.75-.4,2.19,2.19,0,0,1-.9-1.13,5,5,0,0,1-.27-1.71V25.75A5,5,0,0,1,69.79,24a2.13,2.13,0,0,1,.9-1.12,3.26,3.26,0,0,1,1.75-.4,3.34,3.34,0,0,1,1.69.36,1.88,1.88,0,0,1,.85,1,3.88,3.88,0,0,1,.26,1.46v.84h-2.1v-1a4.8,4.8,0,0,0,0-.55.77.77,0,0,0-.18-.44.59.59,0,0,0-.49-.18.65.65,0,0,0-.5.18.85.85,0,0,0-.2.45,3.48,3.48,0,0,0,0,.57v4.58a2.76,2.76,0,0,0,0,.59.84.84,0,0,0,.22.43.61.61,0,0,0,.47.16.59.59,0,0,0,.48-.17.83.83,0,0,0,.18-.45,5.09,5.09,0,0,0,0-.56v-1h2.1v.84A4.29,4.29,0,0,1,75,31.09a2,2,0,0,1-.85,1A3.24,3.24,0,0,1,72.44,32.5Z"/><path class="cls-1" d="M78.19,32.35V24.23H76.72v-1.6H81.8v1.6H80.35v8.12Z"/><path class="cls-1" d="M86.24,32.5a3.31,3.31,0,0,1-1.73-.39A2.11,2.11,0,0,1,83.6,31a4.88,4.88,0,0,1-.28-1.72V25.68A4.78,4.78,0,0,1,83.6,24a2.09,2.09,0,0,1,.91-1.09,3.41,3.41,0,0,1,1.73-.38,3.47,3.47,0,0,1,1.75.38A2.09,2.09,0,0,1,88.9,24a4.57,4.57,0,0,1,.28,1.71v3.61A4.66,4.66,0,0,1,88.9,31a2.11,2.11,0,0,1-.91,1.1A3.36,3.36,0,0,1,86.24,32.5Zm0-1.53a.64.64,0,0,0,.49-.16.91.91,0,0,0,.21-.44,3.12,3.12,0,0,0,0-.54V25.15a3.12,3.12,0,0,0,0-.54.87.87,0,0,0-.21-.43.65.65,0,0,0-.49-.17.63.63,0,0,0-.47.17.86.86,0,0,0-.2.43,3.1,3.1,0,0,0,0,.54v4.68a3.12,3.12,0,0,0,0,.54.88.88,0,0,0,.19.44A.64.64,0,0,0,86.24,31Z"/><path class="cls-1" d="M91.39,32.35V22.63h2.67a6.12,6.12,0,0,1,1.71.22,2.05,2.05,0,0,1,1.12.77,2.68,2.68,0,0,1,.4,1.58,5.7,5.7,0,0,1-.09,1.07,2.14,2.14,0,0,1-.36.81,1.9,1.9,0,0,1-.74.57l1.33,4.7H95.22L94.15,28h-.61v4.35Zm2.15-5.59h.6a1.25,1.25,0,0,0,.7-.16.86.86,0,0,0,.36-.47,2.28,2.28,0,0,0,.1-.74,1.78,1.78,0,0,0-.23-1,.93.93,0,0,0-.84-.35h-.69Z"/><path class="cls-1" d="M106,32.5a3.17,3.17,0,0,1-1.52-.33,2.06,2.06,0,0,1-.93-1,4.7,4.7,0,0,1-.34-1.76l1.83-.27a4.43,4.43,0,0,0,.12,1,1.09,1.09,0,0,0,.28.55.68.68,0,0,0,.45.17.43.43,0,0,0,.44-.23,1.12,1.12,0,0,0,.1-.48,1.77,1.77,0,0,0-.28-1,5.36,5.36,0,0,0-.78-.83l-.84-.73a4.66,4.66,0,0,1-.93-1.06,2.64,2.64,0,0,1-.38-1.47,2.38,2.38,0,0,1,.73-1.89,2.86,2.86,0,0,1,2-.66,2.56,2.56,0,0,1,1.26.27,1.84,1.84,0,0,1,.72.69,2.87,2.87,0,0,1,.33.9,4.77,4.77,0,0,1,.1.9l-1.84.23a7.13,7.13,0,0,0-.06-.75,1,1,0,0,0-.17-.49.48.48,0,0,0-.41-.18.47.47,0,0,0-.44.26,1,1,0,0,0-.14.5,1.44,1.44,0,0,0,.26.88,4.93,4.93,0,0,0,.68.72l.8.7a5.25,5.25,0,0,1,1.08,1.23,3.08,3.08,0,0,1,.44,1.69,2.46,2.46,0,0,1-.32,1.24,2.19,2.19,0,0,1-.88.88A2.65,2.65,0,0,1,106,32.5Z"/><path class="cls-1" d="M110.35,32.35l.17-9.72h2.3l1.07,5.66L115,22.63h2.22l.17,9.72H115.9l-.18-6.46-1.12,6.46h-1.36L112,25.84l-.14,6.51Z"/><path class="cls-1" d="M119.26,32.35l1.84-9.72h2.45l1.81,9.72h-2l-.32-2.05h-1.43l-.34,2.05ZM121.82,29h1l-.51-3.79Z"/></svg>