<svg id="Layer_1" data-name="Layer 1" xmlns="http://www.w3.org/2000/svg" viewBox="0 0 60 60"><defs><style>.cls-1{fill:#fff;}</style></defs><path class="cls-1" d="M24.64,16.19A2.78,2.78,0,0,1,21.86,19H16.28v5.58a2.79,2.79,0,0,1-5.58,0V19H5.13a2.79,2.79,0,1,1,0-5.57H10.7V7.83a2.79,2.79,0,1,1,5.58,0V13.4h5.58A2.79,2.79,0,0,1,24.64,16.19Z"/><path class="cls-1" d="M57.66,16.21a13.33,13.33,0,0,1-17.9,12L12,56a5.64,5.64,0,0,1-8,0H4a5.63,5.63,0,0,1,0-8l27.8-27.8a13.35,13.35,0,0,1,12-17.91,1.16,1.16,0,0,1,.85,2l-6.14,6.13v6.86l4.18,4.18h6.86l6.13-6.13A1.16,1.16,0,0,1,57.66,16.21Z"/></svg>